<?xml version="1.0" encoding="UTF-8"?>
<svg version="1.1" xmlns="http://www.w3.org/2000/svg" width="288" height="288">
<path d="M0 0 C67.32 0 134.64 0 204 0 C199.44438685 54.66735782 199.44438685 54.66735782 197.96109009 70.30224609 C197.44484384 75.74652775 196.93799624 81.19169129 196.4296875 86.63671875 C196.31939713 87.81624115 196.20910675 88.99576355 196.09547424 90.21102905 C194.54874902 106.78459339 193.0492305 123.36249587 191.54483414 139.93994522 C191.24084684 143.28953536 190.93670731 146.63911167 190.63257313 149.98868847 C190.41345271 152.40217851 190.1943993 154.81567462 189.97535706 157.22917175 C189.69583193 160.30895543 189.41606085 163.38871661 189.13609314 166.46846008 C188.54701789 172.95117815 187.9599983 179.43404708 187.38427734 185.91796875 C187.29333298 186.93644897 187.20238861 187.9549292 187.10868835 189.00427246 C186.94763843 190.81020544 186.78798577 192.61626397 186.63020325 194.42248535 C186.22293038 198.97585537 185.68931914 203.4804182 185 208 C184.32000443 208.18712555 183.64000885 208.3742511 182.93940735 208.56704712 C176.42641566 210.3595315 169.91370148 212.15302117 163.40127277 213.94754982 C160.05582676 214.86936679 156.71028658 215.79083853 153.36450195 216.71142578 C150.77114276 217.42498733 148.17795408 218.13916296 145.58493042 218.85394287 C143.02429171 219.55964366 140.4633587 220.2642775 137.90213013 220.96783447 C132.15343961 222.55213358 126.41522299 224.1585556 120.70068359 225.86230469 C119.74647018 226.14472015 118.79225677 226.42713562 117.80912781 226.71810913 C116.07889026 227.23348823 114.35121445 227.75759825 112.62702942 228.2928772 C104.74207294 230.63708572 98.50023486 230.44636209 90.51171875 228.05859375 C89.81918503 227.85554626 89.12665131 227.65249878 88.41313171 227.44329834 C86.93421305 227.00877 85.45665773 226.56957817 83.98040771 226.12606812 C80.0728365 224.95261097 76.1551347 223.8138883 72.23828125 222.671875 C71.4532019 222.44207443 70.66812256 222.21227386 69.85925293 221.97550964 C62.73378073 219.89916008 55.56913562 218.01278466 48.375 216.1875 C38.5115252 213.67815251 28.7319251 210.97860049 19 208 C16.84989384 195.98352392 15.91030929 183.86943686 14.86328125 171.71875 C14.66121425 169.41152483 14.45873566 167.10433567 14.25587463 164.79718018 C13.82615303 159.90157078 13.39893621 155.0057523 12.97381592 150.10974121 C11.97614144 138.62029998 10.96684639 127.13187695 9.9585495 115.64336395 C9.62087294 111.79435809 9.28371966 107.94530661 8.94659424 104.09625244 C7.58696661 88.58765757 6.20322091 73.08148565 4.78515625 57.578125 C4.70148867 56.66284027 4.61782108 55.74755554 4.53161812 54.80453491 C3.75823744 46.34816843 2.98105042 37.89215967 2.19869518 29.4366188 C1.92161504 26.43768449 1.64620888 23.43859798 1.37116814 20.43947601 C1.18647074 18.43306303 0.99923614 16.42688411 0.81190491 14.42071533 C0.70365891 13.23999451 0.5954129 12.05927368 0.48388672 10.84277344 C0.38969452 9.82681091 0.29550232 8.81084839 0.19845581 7.76409912 C0.01305768 5.18186779 0 2.58887835 0 0 Z " fill="#1974B7" transform="translate(45,57)"/>
<path d="M0 0 C41.58 0 83.16 0 126 0 C126 12.36054422 126 12.36054422 125.44921875 17.40625 C125.26963623 19.10986694 125.26963623 19.10986694 125.08642578 20.84790039 C124.95478027 22.05309326 124.82313477 23.25828613 124.6875 24.5 C124.40541531 27.19641733 124.12493213 29.8929341 123.84765625 32.58984375 C123.77597229 33.28452255 123.70428833 33.97920135 123.63043213 34.69493103 C122.86955467 42.14285007 122.24478483 49.60178266 121.625 57.0625 C119.62322689 81.06023942 117.28889254 105.02829277 115 129 C113.95199219 129.26554688 112.90398437 129.53109375 111.82421875 129.8046875 C110.4452352 130.16115944 109.06633316 130.51794679 107.6875 130.875 C106.99720703 131.04902344 106.30691406 131.22304687 105.59570312 131.40234375 C102.28124438 132.26698516 99.87721447 133.08185702 97 135 C94.27084357 135.69173507 91.56793695 136.31102168 88.8125 136.875 C81.78253437 138.32019409 81.78253437 138.32019409 74.88671875 140.2890625 C63.89172356 143.80465619 55.90019915 142.26168597 45 139 C42.94700778 138.40878916 40.89359997 137.81902013 38.83984375 137.23046875 C34.71681378 136.04221702 30.60458632 134.82337305 26.49609375 133.5859375 C22.96582892 132.53468391 19.44975699 131.62105371 15.84765625 130.8515625 C12 130 12 130 11 129 C8.37358094 115.86790472 8.43218824 102.325804 8 89 C16.25 89 24.5 89 33 89 C33.88639389 91.65918166 34.17989025 93.48064641 34.31640625 96.23046875 C34.35830078 97.03291016 34.40019531 97.83535156 34.44335938 98.66210938 C34.48267578 99.49548828 34.52199219 100.32886719 34.5625 101.1875 C34.60568359 102.03248047 34.64886719 102.87746094 34.69335938 103.74804688 C34.79931518 105.83184433 34.9001502 107.91590103 35 110 C35.61375488 110.1127124 36.22750977 110.2254248 36.85986328 110.34155273 C43.50123734 111.57309993 49.92148783 113.36090925 56.38671875 115.29296875 C64.04423731 116.79135887 71.54845705 113.91394988 78.9375 111.9375 C82.588125 110.968125 86.23875 109.99875 90 109 C90.99 98.44 91.98 87.88 93 77 C73.86 77 54.72 77 35 77 C33 56 33 56 33 51 C54.12 51 75.24 51 97 51 C97 46.71 97 42.42 97 38 C97.66 33.71 98.32 29.42 99 25 C66.99 25 34.98 25 2 25 C0.8083787 22.61675741 0.67995959 20.7805098 0.4375 18.125 C0.35371094 17.26132813 0.26992187 16.39765625 0.18359375 15.5078125 C-0.08660742 10.34524555 0 5.16963308 0 0 Z " fill="#FDFEFE" transform="translate(84,98)"/>
<path d="M0 0 C27.06 0 54.12 0 82 0 C82 8.71539279 81.7421953 16.70811097 80.625 25.25 C79.56183914 33.88756099 78.64966687 42.50890475 78 51.1875 C77.28637944 60.67971406 76.43417853 70.15198793 75.5 79.625 C74.33017624 91.51285533 73.23911399 103.40417933 72.22949219 115.30664062 C71.92563437 118.8727677 71.61410986 122.43820623 71.30249023 126.00366211 C69.84633759 142.66720339 68.42587408 159.33384659 67 176 C58.7368805 178.39282719 50.46258983 180.69225948 42.125 182.8125 C32.65115886 185.24558539 23.26004657 187.91167987 13.89306641 190.7277832 C12.94737793 191.00968506 12.00168945 191.29158691 11.02734375 191.58203125 C10.19968506 191.83186768 9.37202637 192.0817041 8.51928711 192.33911133 C5.69869945 193.07904066 2.88107001 193.55871257 0 194 C-0.01458252 193.19256348 -0.02916504 192.38512695 -0.04418945 191.55322266 C-0.11846086 187.9099873 -0.21519025 184.26768967 -0.3125 180.625 C-0.33505859 179.35398438 -0.35761719 178.08296875 -0.38085938 176.7734375 C-0.41630859 175.56171875 -0.45175781 174.35 -0.48828125 173.1015625 C-0.52755737 171.42054443 -0.52755737 171.42054443 -0.56762695 169.70556641 C-0.71031006 168.81272949 -0.85299316 167.91989258 -1 167 C-1.99 166.34 -2.98 165.68 -4 165 C-2.75347656 164.89558594 -1.50695312 164.79117188 -0.22265625 164.68359375 C5.52966082 164.04319688 10.98888921 162.58257567 16.5625 161.0625 C18.54288697 160.53224655 20.52335424 160.00229292 22.50390625 159.47265625 C23.44194092 159.21943604 24.37997559 158.96621582 25.34643555 158.70532227 C27.70202291 158.07920285 30.06198393 157.48444547 32.4296875 156.90625 C35.21814146 156.19845862 37.8634689 155.41570672 40.5625 154.4375 C44.39022101 153.1217209 47.97968446 152.42769314 52 152 C51.98599655 151.28665497 51.9719931 150.57330994 51.95756531 149.83834839 C51.87268845 142.08579116 52.39271208 134.52557399 53.20703125 126.8203125 C53.39476357 124.96777107 53.39476357 124.96777107 53.58628845 123.07780457 C53.85287114 120.44886097 54.12135133 117.82019958 54.39318848 115.19180298 C55.10181106 108.33385802 55.78823449 101.47367753 56.47265625 94.61328125 C56.54044659 93.93520353 56.60823692 93.25712582 56.67808151 92.55850029 C58.05238836 78.78305232 59.2119064 64.99689651 60.1900177 51.18789673 C60.89815117 41.729316 61.94842197 32.46420225 63 23 C42.21 23 21.42 23 0 23 C0 15.41 0 7.82 0 0 Z " fill="#33A9DB" transform="translate(147,75)"/>
<path d="M0 0 C8.25 0 16.5 0 25 0 C25.88639389 2.65918166 26.17989025 4.48064641 26.31640625 7.23046875 C26.35830078 8.03291016 26.40019531 8.83535156 26.44335938 9.66210938 C26.48267578 10.49548828 26.52199219 11.32886719 26.5625 12.1875 C26.60568359 13.03248047 26.64886719 13.87746094 26.69335938 14.74804688 C26.79931518 16.83184433 26.9001502 18.91590103 27 21 C28.918125 21.3403125 28.918125 21.3403125 30.875 21.6875 C39.03835445 23.30365543 46.99989366 25.73131313 55 28 C55 36.25 55 44.5 55 53 C42.62642526 51.87512957 42.62642526 51.87512957 36.96875 50.2578125 C35.74542969 49.91363281 34.52210937 49.56945312 33.26171875 49.21484375 C32.02035156 48.85519531 30.77898437 48.49554688 29.5 48.125 C27.01042731 47.41923329 24.52084413 46.71350357 22.03125 46.0078125 C20.84789063 45.66782227 19.66453125 45.32783203 18.4453125 44.97753906 C14.30806341 43.80367672 10.15484606 42.69637851 5.99414062 41.60888672 C4 41 4 41 3 40 C0.37358094 26.86790472 0.43218824 13.325804 0 0 Z " fill="#E5E8E9" transform="translate(92,187)"/>
<path d="M0 0 C41.58 0 83.16 0 126 0 C126 0.33 126 0.66 126 1 C105.21 1 84.42 1 63 1 C63 8.92 63 16.84 63 25 C42.87 25 22.74 25 2 25 C0.8083787 22.61675741 0.67995959 20.7805098 0.4375 18.125 C0.35371094 17.26132813 0.26992187 16.39765625 0.18359375 15.5078125 C-0.08660742 10.34524555 0 5.16963308 0 0 Z " fill="#E5E8EA" transform="translate(84,98)"/>
<path d="M0 0 C12.21 0 24.42 0 37 0 C37 3.96 37 7.92 37 12 C35.12175109 13.87824891 31.96064724 13.39102397 29.4375 13.5625 C28.23996094 13.64628906 27.04242188 13.73007813 25.80859375 13.81640625 C24.88175781 13.87699219 23.95492187 13.93757812 23 14 C23.42410156 14.4125 23.84820312 14.825 24.28515625 15.25 C25.52709603 16.47283301 26.75665003 17.70831636 27.9765625 18.953125 C29.29463492 20.28646467 30.6429246 21.59079558 32.0234375 22.859375 C33.9375 24.75 33.9375 24.75 37 29 C37 32.63 37 36.26 37 40 C24.79 40 12.58 40 0 40 C0 36.04 0 32.08 0 28 C4.95 27.67 9.9 27.34 15 27 C13.63875 25.659375 12.2775 24.31875 10.875 22.9375 C10.05902344 22.10863281 9.24304688 21.27976562 8.40234375 20.42578125 C6.98719551 18.99682669 5.5500221 17.58820204 4.06640625 16.23046875 C2.4375 14.625 2.4375 14.625 0 11 C0 7.37 0 3.74 0 0 Z " fill="#202020" transform="translate(168,1)"/>
<path d="M0 0 C12.21 0 24.42 0 37 0 C37 3.96 37 7.92 37 12 C35.12175109 13.87824891 31.96064724 13.39102397 29.4375 13.5625 C28.23996094 13.64628906 27.04242188 13.73007813 25.80859375 13.81640625 C24.88175781 13.87699219 23.95492187 13.93757812 23 14 C24.9578264 16.12546902 26.91623817 18.25039334 28.875 20.375 C29.70837891 21.27992187 29.70837891 21.27992187 30.55859375 22.203125 C31.36103516 23.07324219 31.36103516 23.07324219 32.1796875 23.9609375 C32.67194824 24.49509277 33.16420898 25.02924805 33.67138672 25.57958984 C34.75815762 26.74144818 35.87505872 27.87505872 37 29 C37 32.63 37 36.26 37 40 C24.79 40 12.58 40 0 40 C0 36.04 0 32.08 0 28 C4.95 27.67 9.9 27.34 15 27 C14.08476562 26.09636719 13.16953125 25.19273438 12.2265625 24.26171875 C11.02590942 23.07044577 9.82539585 21.87903217 8.625 20.6875 C8.02171875 20.09259766 7.4184375 19.49769531 6.796875 18.88476562 C5.92675781 18.01948242 5.92675781 18.01948242 5.0390625 17.13671875 C4.50490723 16.60780029 3.97075195 16.07888184 3.42041016 15.53393555 C-1.59735941 10.1151239 0 9.21570227 0 0 Z " fill="#1F1F1F" transform="translate(126,1)"/>
<path d="M0 0 C9.9 0 19.8 0 30 0 C30 16.10472973 30 16.10472973 29 23.875 C28.85691406 25.06802734 28.85691406 25.06802734 28.7109375 26.28515625 C28.48131715 28.19100519 28.24182087 30.09566065 28 32 C21.95643863 34.12643826 15.84256671 35.97722733 9.6875 37.75 C8.89875488 37.98485107 8.11000977 38.21970215 7.29736328 38.46166992 C6.54310059 38.6754126 5.78883789 38.88915527 5.01171875 39.109375 C4.33584717 39.30499023 3.65997559 39.50060547 2.96362305 39.70214844 C0.70474792 40.04478522 -0.83911309 39.68641711 -3 39 C-2.01 39 -1.02 39 0 39 C0 26.13 0 13.26 0 0 Z " fill="#34A9DC" transform="translate(147,175)"/>
<path d="M0 0 C10.89 0 21.78 0 33 0 C33 4.29 33 8.58 33 13 C27.06 13 21.12 13 15 13 C15 17.95 15 22.9 15 28 C20.94 28 26.88 28 33 28 C33 31.96 33 35.92 33 40 C22.11 40 11.22 40 0 40 C0 26.8 0 13.6 0 0 Z " fill="#222222" transform="translate(88,1)"/>
<path d="M0 0 C32.01 0 64.02 0 97 0 C96.33333333 8.66666667 95.66666667 17.33333333 95 26 C83.78 26 72.56 26 61 26 C61 17.75 61 9.5 61 1 C40.87 1 20.74 1 0 1 C0 0.67 0 0.34 0 0 Z " fill="#3EACDC" transform="translate(86,123)"/>
<path d="M0 0 C20.79 0 41.58 0 63 0 C63 0.33 63 0.66 63 1 C52.11 1 41.22 1 30 1 C30 8.92 30 16.84 30 25 C40.23 25 50.46 25 61 25 C61 27.97 61 30.94 61 34 C60.67 34 60.34 34 60 34 C60 31.36 60 28.72 60 26 C40.86 26 21.72 26 2 26 C0 5 0 5 0 0 Z " fill="#DEE5E9" transform="translate(117,149)"/>
<path d="M0 0 C0 0.99 0 1.98 0 3 C-5.94 3 -11.88 3 -18 3 C-18 2.34 -18 1.68 -18 1 C-15.37504621 0.83257698 -12.75004205 0.6660283 -10.125 0.5 C-9.00544922 0.42845703 -9.00544922 0.42845703 -7.86328125 0.35546875 C-2.2265625 0 -2.2265625 0 0 0 Z " fill="#3E3E3E" transform="translate(144,28)"/>
</svg>
