<?xml version="1.0" encoding="UTF-8"?>
<svg version="1.1" xmlns="http://www.w3.org/2000/svg" width="288" height="288">
<path d="M0 0 C0.83828038 -0.00155999 1.67656075 -0.00311998 2.54024357 -0.00472724 C5.3592798 -0.00872735 8.17826252 -0.00555141 10.99729919 -0.00241089 C13.01417574 -0.00376536 15.03105203 -0.00554555 17.04792786 -0.00772095 C22.53325289 -0.01228957 28.01855918 -0.01050813 33.50388455 -0.00734186 C39.23516469 -0.00481567 44.96644319 -0.00715649 50.69772339 -0.00872803 C60.32248728 -0.01054881 69.9472435 -0.00814563 79.57200623 -0.00338745 C90.7129495 0.00205654 101.85387448 0.00029115 112.99481732 -0.00521386 C122.54727319 -0.00974572 132.09972354 -0.01039522 141.65218014 -0.00777519 C147.36318095 -0.00621302 153.07417315 -0.00601705 158.78517342 -0.00931168 C164.1522813 -0.0121915 169.51936549 -0.01021263 174.88647079 -0.00441742 C176.86101555 -0.00309049 178.83556229 -0.00348281 180.81010628 -0.00568008 C183.49582732 -0.00839415 186.18147142 -0.00500728 188.8671875 0 C189.65695986 -0.00223072 190.44673222 -0.00446144 191.26043707 -0.00675976 C196.64180163 0.01283349 196.64180163 0.01283349 198.87010193 1.12698364 C198.87010193 4.42698364 198.87010193 7.72698364 198.87010193 11.12698364 C198.21010193 11.12698364 197.55010193 11.12698364 196.87010193 11.12698364 C196.87010193 17.39698364 196.87010193 23.66698364 196.87010193 30.12698364 C196.54010193 30.12698364 196.21010193 30.12698364 195.87010193 30.12698364 C195.54010193 37.05698364 195.21010193 43.98698364 194.87010193 51.12698364 C194.21010193 51.12698364 193.55010193 51.12698364 192.87010193 51.12698364 C192.87533875 51.75789917 192.88057556 52.3888147 192.88597107 53.03884888 C192.90668019 55.88071711 192.91974259 58.72256952 192.93260193 61.56448364 C192.94098083 62.5577063 192.94935974 63.55092896 192.95799255 64.57424927 C192.96121521 65.51848755 192.96443787 66.46272583 192.96775818 67.43557739 C192.972995 68.31012573 192.97823181 69.18467407 192.98362732 70.08572388 C192.87010193 72.12698364 192.87010193 72.12698364 191.87010193 73.12698364 C191.72557475 74.60205482 191.64315268 76.08334404 191.58885193 77.56448364 C191.55146912 78.45909302 191.5140863 79.35370239 191.47557068 80.27542114 C191.44076599 81.21643677 191.4059613 82.15745239 191.37010193 83.12698364 C191.30151705 84.98131559 191.2288238 86.83550172 191.15135193 88.68948364 C191.12105896 89.51577271 191.09076599 90.34206177 191.05955505 91.19338989 C190.87010193 93.12698364 190.87010193 93.12698364 189.87010193 94.12698364 C189.72550488 95.57854424 189.64313082 97.03643651 189.58885193 98.49417114 C189.55146912 99.37975708 189.5140863 100.26534302 189.47557068 101.17776489 C189.44076599 102.10975708 189.4059613 103.04174927 189.37010193 104.00198364 C189.30115654 105.83286667 189.22840017 107.6636112 189.15135193 109.49417114 C189.12105896 110.30998657 189.09076599 111.125802 189.05955505 111.96633911 C188.87010193 114.12698364 188.87010193 114.12698364 187.87010193 117.12698364 C187.73500094 118.65644521 187.64627334 120.19029712 187.58885193 121.72463989 C187.55146912 122.60829224 187.5140863 123.49194458 187.47557068 124.40237427 C187.40511057 126.26434785 187.33479869 128.12632706 187.26463318 129.98831177 C187.22725037 130.87067505 187.18986755 131.75303833 187.15135193 132.66213989 C187.12105896 133.47046265 187.09076599 134.2787854 187.05955505 135.11160278 C186.87010193 137.12698364 186.87010193 137.12698364 185.87010193 139.12698364 C185.65539208 141.77469903 185.49307078 144.40442164 185.37010193 147.05667114 C185.32949646 147.84341217 185.28889099 148.6301532 185.24705505 149.44073486 C185.11718364 151.96095825 184.99303318 154.48141279 184.87010193 157.00198364 C184.74700357 159.51540202 184.62254746 162.02870675 184.4931488 164.54180908 C184.41258955 166.10646086 184.33562711 167.67130298 184.26268005 169.23632812 C184.08638735 172.66248604 183.76788247 175.82031569 182.87010193 179.12698364 C182.72712062 180.78563484 182.62468968 182.44807054 182.55369568 184.11135864 C182.51180115 185.04592896 182.46990662 185.98049927 182.42674255 186.94338989 C182.38742615 187.91147583 182.34810974 188.87956177 182.30760193 189.87698364 C182.24282654 191.35231567 182.24282654 191.35231567 182.17674255 192.85745239 C182.07088141 195.2804964 181.96880022 197.70363904 181.87010193 200.12698364 C181.21010193 200.12698364 180.55010193 200.12698364 179.87010193 200.12698364 C179.87010193 204.08698364 179.87010193 208.04698364 179.87010193 212.12698364 C179.21010193 212.12698364 178.55010193 212.12698364 177.87010193 212.12698364 C177.87010193 212.78698364 177.87010193 213.44698364 177.87010193 214.12698364 C175.56010193 214.12698364 173.25010193 214.12698364 170.87010193 214.12698364 C170.87010193 214.78698364 170.87010193 215.44698364 170.87010193 216.12698364 C168.56010193 216.12698364 166.25010193 216.12698364 163.87010193 216.12698364 C163.87010193 216.78698364 163.87010193 217.44698364 163.87010193 218.12698364 C161.56010193 218.12698364 159.25010193 218.12698364 156.87010193 218.12698364 C156.87010193 218.78698364 156.87010193 219.44698364 156.87010193 220.12698364 C154.56010193 220.12698364 152.25010193 220.12698364 149.87010193 220.12698364 C149.87010193 220.78698364 149.87010193 221.44698364 149.87010193 222.12698364 C147.56010193 222.12698364 145.25010193 222.12698364 142.87010193 222.12698364 C142.87010193 222.78698364 142.87010193 223.44698364 142.87010193 224.12698364 C140.56010193 224.12698364 138.25010193 224.12698364 135.87010193 224.12698364 C135.87010193 224.78698364 135.87010193 225.44698364 135.87010193 226.12698364 C134.35416443 226.31260864 134.35416443 226.31260864 132.80760193 226.50198364 C129.75110989 226.98714111 126.96815828 227.6311928 124.01853943 228.52542114 C120.10142701 229.62221262 116.12042847 230.459435 112.15135193 231.34573364 C109.89356004 231.88330314 107.65522352 232.50749795 105.44041443 233.20120239 C93.31204683 236.34608546 81.15706328 233.53773603 69.43260193 230.12698364 C63.64595133 228.50266067 57.75257315 227.35079874 51.87010193 226.12698364 C51.87010193 225.46698364 51.87010193 224.80698364 51.87010193 224.12698364 C49.56010193 224.12698364 47.25010193 224.12698364 44.87010193 224.12698364 C44.87010193 223.46698364 44.87010193 222.80698364 44.87010193 222.12698364 C42.56010193 222.12698364 40.25010193 222.12698364 37.87010193 222.12698364 C37.87010193 221.46698364 37.87010193 220.80698364 37.87010193 220.12698364 C35.56010193 220.12698364 33.25010193 220.12698364 30.87010193 220.12698364 C30.87010193 219.46698364 30.87010193 218.80698364 30.87010193 218.12698364 C28.56010193 218.12698364 26.25010193 218.12698364 23.87010193 218.12698364 C23.87010193 217.46698364 23.87010193 216.80698364 23.87010193 216.12698364 C21.56010193 216.12698364 19.25010193 216.12698364 16.87010193 216.12698364 C16.87010193 215.46698364 16.87010193 214.80698364 16.87010193 214.12698364 C14.56010193 214.12698364 12.25010193 214.12698364 9.87010193 214.12698364 C9.87010193 213.46698364 9.87010193 212.80698364 9.87010193 212.12698364 C9.21010193 212.12698364 8.55010193 212.12698364 7.87010193 212.12698364 C7.87010193 207.83698364 7.87010193 203.54698364 7.87010193 199.12698364 C7.21010193 199.12698364 6.55010193 199.12698364 5.87010193 199.12698364 C5.84504578 198.51701538 5.81998962 197.90704712 5.79417419 197.27859497 C5.67769613 194.49870467 5.5552056 191.71911024 5.43260193 188.93948364 C5.39328552 187.97977661 5.35396912 187.02006958 5.3134613 186.03128052 C5.27156677 185.09993286 5.22967224 184.16858521 5.18650818 183.20901489 C5.14985046 182.35541382 5.11319275 181.50181274 5.07542419 180.62234497 C4.92470054 178.14471726 4.92470054 178.14471726 4.38157654 175.82766724 C3.69083168 172.18040251 3.54372827 168.53376046 3.37010193 164.83401489 C3.2867888 163.21877948 3.20345485 161.60354513 3.12010193 159.98831177 C2.99384831 157.45362237 2.86909334 154.91886475 2.74510193 152.38406372 C2.62376904 149.9296794 2.49714622 147.47560915 2.37010193 145.02151489 C2.3169281 143.87934258 2.3169281 143.87934258 2.26268005 142.71409607 C2.12293189 138.79160504 2.12293189 138.79160504 0.87010193 135.12698364 C0.73053608 133.64229798 0.64469859 132.15232488 0.58885193 130.66213989 C0.55146912 129.77977661 0.5140863 128.89741333 0.47557068 127.98831177 C0.44076599 127.06469849 0.4059613 126.14108521 0.37010193 125.18948364 C0.30116321 123.36771418 0.22840792 121.54608407 0.15135193 119.72463989 C0.12105896 118.91518921 0.09076599 118.10573853 0.05955505 117.27175903 C-0.06279302 114.94242078 -0.06279302 114.94242078 -1.12989807 112.12698364 C-1.26503611 110.58578308 -1.35373999 109.04021958 -1.41114807 107.49417114 C-1.44853088 106.60600708 -1.4859137 105.71784302 -1.52442932 104.80276489 C-1.5950356 102.92777593 -1.66534567 101.0527758 -1.73536682 99.17776489 C-1.77274963 98.29217896 -1.81013245 97.40659302 -1.84864807 96.49417114 C-1.89408752 95.27383179 -1.89408752 95.27383179 -1.94044495 94.02883911 C-1.92801676 92.11768734 -1.92801676 92.11768734 -3.12989807 91.12698364 C-3.27442525 89.65191246 -3.35684732 88.17062324 -3.41114807 86.68948364 C-3.46722229 85.34756958 -3.46722229 85.34756958 -3.52442932 83.97854614 C-3.59474182 82.07750448 -3.66505432 80.17646281 -3.73536682 78.27542114 C-3.79144104 76.93350708 -3.79144104 76.93350708 -3.84864807 75.56448364 C-3.87894104 74.73819458 -3.90923401 73.91190552 -3.94044495 73.06057739 C-3.92391466 71.12137208 -3.92391466 71.12137208 -5.12989807 70.12698364 C-5.2167541 68.56525619 -5.23692027 66.9996902 -5.22755432 65.43557739 C-5.22433167 64.49133911 -5.22110901 63.54710083 -5.2177887 62.57424927 C-5.20940979 61.58102661 -5.20103088 60.58780396 -5.19239807 59.56448364 C-5.18788635 58.5673938 -5.18337463 57.57030396 -5.1787262 56.54299927 C-5.16689814 54.07093516 -5.15041656 51.59898846 -5.12989807 49.12698364 C-5.78989807 49.12698364 -6.44989807 49.12698364 -7.12989807 49.12698364 C-7.12989807 42.19698364 -7.12989807 35.26698364 -7.12989807 28.12698364 C-7.78989807 28.12698364 -8.44989807 28.12698364 -9.12989807 28.12698364 C-9.12989807 21.85698364 -9.12989807 15.58698364 -9.12989807 9.12698364 C-9.78989807 9.12698364 -10.44989807 9.12698364 -11.12989807 9.12698364 C-11.12989807 6.48698364 -11.12989807 3.84698364 -11.12989807 1.12698364 C-7.38319749 -0.12191655 -3.90215802 -0.01105291 0 0 Z " fill="#E44C25" transform="translate(50.12989807128906,53.873016357421875)"/>
<path d="M0 0 C41.58 0 83.16 0 126 0 C126 8.25 126 16.5 126 25 C124.08935701 26.91064299 121.26172105 26.12014611 118.71983337 26.12442017 C117.36469383 26.11902725 117.36469383 26.11902725 115.98217773 26.11352539 C115.03593536 26.11367142 114.08969299 26.11381744 113.11477661 26.1139679 C109.97102608 26.11326836 106.82733399 26.10547409 103.68359375 26.09765625 C101.51025932 26.09579221 99.33692448 26.09436824 97.16358948 26.09336853 C91.43098805 26.08954221 85.69841177 26.07971097 79.96582031 26.06866455 C74.12109721 26.05845287 68.27637007 26.05387143 62.43164062 26.04882812 C50.95441423 26.0380888 39.47721314 26.02049108 28 26 C28.33 34.25 28.66 42.5 29 51 C59.69 51.33 90.38 51.66 122 52 C120.84966216 87.66047297 120.84966216 87.66047297 119.9375 100.9375 C119.84523141 102.33785962 119.75343767 103.73825061 119.66210938 105.13867188 C119.44597984 108.42611585 119.22542114 111.71318265 119 115 C118.34 115 117.68 115 117 115 C117.01160156 115.56847656 117.02320313 116.13695312 117.03515625 116.72265625 C117.09223194 121.60670484 116.81956772 126.18503965 116 131 C111.98334964 132.9435405 108.27578371 133.39815662 103.890625 133.75390625 C101.99096139 133.80573168 101.99096139 133.80573168 101 135 C99.67450913 135.32545535 98.33889065 135.61001123 97 135.875 C92.18740496 136.90680833 87.65145183 138.40941733 83 140 C80.3186184 140.9152793 77.63037264 141.8066422 74.9375 142.6875 C74.2767749 142.9141333 73.6160498 143.1407666 72.93530273 143.37426758 C63.59053386 146.39733678 56.29128621 144.55367056 47.125 141.75 C46.10019531 141.44964844 45.07539062 141.14929688 44.01953125 140.83984375 C39.12481017 139.37826884 34.36435249 137.79309892 29.64453125 135.8359375 C25.95133205 134.31251132 22.54883374 133.37262998 18.5625 132.875 C14.81618943 132.3963319 13.20462964 132.13641976 10 130 C9.3840332 127.82373047 9.3840332 127.82373047 9.05078125 125.1171875 C8.92485596 124.12138672 8.79893066 123.12558594 8.66918945 122.09960938 C8.55148193 121.03548828 8.43377441 119.97136719 8.3125 118.875 C8.18512451 117.79798828 8.05774902 116.72097656 7.92651367 115.61132812 C6.96939264 106.99916468 6.75030088 98.65623615 7 90 C15.58 90 24.16 90 33 90 C33.9375 99.9375 33.9375 99.9375 34.22631836 103.07397461 C34.30503174 103.88358643 34.38374512 104.69319824 34.46484375 105.52734375 C34.543396 106.35999756 34.62194824 107.19265137 34.70288086 108.05053711 C34.80311398 110.000612 34.80311398 110.000612 36 111 C37.57729717 111.30402102 39.16253528 111.56703941 40.75 111.8125 C46.3225125 112.76301971 51.52020501 114.3574575 56.859375 116.1953125 C63.11617962 117.79842413 68.25018323 116.88411928 74.375 115.125 C79.88911113 113.57434854 85.39424554 112.18015883 91 111 C91.31783593 108.33388113 91.62923809 105.66723075 91.9375 103 C92.02451172 102.27554688 92.11152344 101.55109375 92.20117188 100.8046875 C93.10991585 92.86159205 93.49870228 85.02076346 94 77 C64.63 77 35.26 77 5 77 C4.505 69.575 4.505 69.575 4 62 C3.53486483 57.92753935 3.04789489 53.87288938 2.5 49.8125 C0.26582099 33.05615745 0 17.05550253 0 0 Z " fill="#EBE6E4" transform="translate(81,99)"/>
<path d="M0 0 C27.39 0 54.78 0 83 0 C84.12502823 7.87519761 84.12502823 7.87519761 83.76220703 11.78271484 C83.64681076 13.08974869 83.64681076 13.08974869 83.52908325 14.42318726 C83.39480423 15.80312363 83.39480423 15.80312363 83.2578125 17.2109375 C83.16998505 18.17850983 83.08215759 19.14608215 82.9916687 20.14297485 C82.71034766 23.22106926 82.41775154 26.29797395 82.125 29.375 C81.93547496 31.43482944 81.74666592 33.4947249 81.55859375 35.5546875 C80.77744876 44.0455463 79.96289321 52.52761559 79 61 C78.34 61 77.68 61 77 61 C77.01187347 61.72499191 77.02374695 62.44998383 77.03598022 63.19694519 C77.10398351 70.58924334 76.70056663 77.82233361 75.9765625 85.17578125 C75.87032562 86.30283981 75.76408875 87.42989838 75.65463257 88.59111023 C75.31667448 92.16542967 74.97113104 95.73896369 74.625 99.3125 C74.40050563 101.66466244 74.17654362 104.01687576 73.953125 106.36914062 C73.84325256 107.52583755 73.73338013 108.68253448 73.62017822 109.87428284 C73.51091003 111.02565231 73.40164185 112.17702179 73.2890625 113.36328125 C73.17995544 114.51219345 73.07084839 115.66110565 72.95843506 116.84483337 C71.32988299 134.02764034 69.7577122 151.08553547 69.43359375 168.34960938 C69.40394531 169.45755859 69.37429687 170.56550781 69.34375 171.70703125 C69.32505859 172.6813208 69.30636719 173.65561035 69.28710938 174.65942383 C69 177 69 177 67 179 C64.64916992 179.76196289 64.64916992 179.76196289 61.73046875 180.47265625 C60.67666016 180.73240234 59.62285156 180.99214844 58.53710938 181.25976562 C57.43173828 181.52466797 56.32636719 181.78957031 55.1875 182.0625 C53.5468457 182.4656543 53.5468457 182.4656543 51.87304688 182.87695312 C47.26210911 184.0036966 42.66037642 185.09592197 38 186 C38 186.66 38 187.32 38 188 C37.17435547 188.11214844 37.17435547 188.11214844 36.33203125 188.2265625 C23.9668336 190.18198911 11.85627384 194.04790872 0 198 C0 189.42 0 180.84 0 172 C-0.66 171.67 -1.32 171.34 -2 171 C-0.35257813 170.5978125 -0.35257813 170.5978125 1.328125 170.1875 C6.4979636 168.89390162 11.6239974 167.45633267 16.75 166 C17.68199219 165.73960937 18.61398438 165.47921875 19.57421875 165.2109375 C20.47269531 164.95570313 21.37117188 164.70046875 22.296875 164.4375 C23.10479492 164.20933594 23.91271484 163.98117188 24.74511719 163.74609375 C27.01420207 163.05883246 27.01420207 163.05883246 29.06347656 161.9453125 C31.91746784 160.55213874 34.87372639 160.41290406 38 160 C38.33 159.67 38.66 159.34 39 159 C43.31652785 158.21465562 47.65775356 157.63236599 52 157 C52.66 151.72 53.32 146.44 54 141 C54.66 141 55.32 141 56 141 C55.97679687 140.03449219 55.95359375 139.06898438 55.9296875 138.07421875 C55.75436231 126.64410386 56.27781511 115.28144646 56.9375 103.875 C57.00284943 102.72745743 57.00284943 102.72745743 57.06951904 101.55673218 C57.82943744 88.34373496 57.82943744 88.34373496 58.51856995 82.25418091 C58.60870141 81.45435854 58.69883287 80.65453617 58.79169559 79.83047676 C58.86043605 79.22641943 58.9291765 78.6223621 59 78 C57.86438629 78.00222061 56.72877258 78.00444122 55.55874634 78.00672913 C44.87544933 78.02696919 34.19215619 78.04197633 23.50884438 78.05181217 C18.01597929 78.05703879 12.52312964 78.06413246 7.03027344 78.07543945 C1.73295311 78.08627614 -3.56435234 78.09227851 -8.86168289 78.09487724 C-10.88636128 78.09673007 -12.91103882 78.10034799 -14.93571091 78.10573006 C-17.76363661 78.11295083 -20.59150021 78.1139905 -23.41943359 78.11352539 C-24.68502357 78.1189183 -24.68502357 78.1189183 -25.97618103 78.12442017 C-31.77189568 78.11405216 -31.77189568 78.11405216 -34 77 C-35.47008541 68.62051315 -35 60.62359584 -35 52 C13.015 51.505 13.015 51.505 62 51 C62.33 42.75 62.66 34.5 63 26 C21.42 26 -20.16 26 -63 26 C-63 31.28 -63 36.56 -63 42 C-63.33 42 -63.66 42 -64 42 C-64.19386492 39.35448944 -64.38038267 36.70882217 -64.5625 34.0625 C-64.61857422 33.30775391 -64.67464844 32.55300781 -64.73242188 31.77539062 C-64.86176157 29.85254042 -64.93516912 27.92610452 -65 26 C-64 25 -64 25 -61.45005798 24.87974548 C-59.74795921 24.8830764 -59.74795921 24.8830764 -58.01147461 24.88647461 C-56.73022202 24.88655014 -55.44896942 24.88662567 -54.12889099 24.88670349 C-52.72004152 24.89181091 -51.31119244 24.89702691 -49.90234375 24.90234375 C-48.46887766 24.90420798 -47.03541093 24.90563186 -45.60194397 24.90663147 C-41.82240043 24.91045628 -38.0428951 24.92028623 -34.2633667 24.93133545 C-30.40930702 24.94155037 -26.55524118 24.94612926 -22.70117188 24.95117188 C-15.13409512 24.96190855 -7.56705777 24.97950503 0 25 C0 16.75 0 8.5 0 0 Z " fill="#F0652B" transform="translate(144,73)"/>
<path d="M0 0 C1.02814316 0.00222061 2.05628632 0.00444122 3.11558533 0.00672913 C4.85727745 0.00684242 4.85727745 0.00684242 6.63415527 0.00695801 C8.52943214 0.01469994 8.52943214 0.01469994 10.46299744 0.02259827 C12.39193092 0.02472069 12.39193092 0.02472069 14.35983276 0.02688599 C17.78427561 0.03071034 21.20867628 0.0405399 24.63310242 0.05158997 C28.12522308 0.06180587 31.61735053 0.06638399 35.10948181 0.07142639 C41.96561897 0.08216225 48.82172806 0.09923767 55.67784119 0.12025452 C55.53762849 4.4316542 55.38964795 8.7427547 55.24034119 13.05384827 C55.20102478 14.26568787 55.16170837 15.47752747 55.12120056 16.72608948 C54.34380876 38.78831937 54.34380876 38.78831937 51.67784119 44.12025452 C51.53583746 45.99613103 51.45166982 47.87653606 51.39659119 49.75697327 C51.35920837 50.8919928 51.32182556 52.02701233 51.28330994 53.19642639 C51.24850525 54.38816467 51.21370056 55.57990295 51.17784119 56.80775452 C50.7572081 70.97685781 50.7572081 70.97685781 49.67784119 77.12025452 C37.36055395 81.79232898 37.36055395 81.79232898 31.36534119 83.05775452 C26.66410346 84.06961032 22.22292281 85.56604557 17.67784119 87.12025452 C14.99645958 88.03553381 12.30821383 88.92689672 9.61534119 89.80775452 C8.95461609 90.03438782 8.29389099 90.26102112 7.61314392 90.49452209 C-1.73162495 93.5175913 -9.0308726 91.67392508 -18.19715881 88.87025452 C-19.2219635 88.56990295 -20.24676819 88.26955139 -21.30262756 87.96009827 C-26.19734864 86.49852336 -30.95780633 84.91335343 -35.67762756 82.95619202 C-39.37082676 81.43276584 -42.77332507 80.49288449 -46.75965881 79.99525452 C-50.50596938 79.51658641 -52.11752917 79.25667428 -55.32215881 77.12025452 C-55.93812561 74.94398499 -55.93812561 74.94398499 -56.27137756 72.23744202 C-56.39730286 71.24164124 -56.52322815 70.24584045 -56.65296936 69.21986389 C-56.77067688 68.1557428 -56.8883844 67.0916217 -57.00965881 65.99525452 C-57.1370343 64.9182428 -57.26440979 63.84123108 -57.39564514 62.73158264 C-58.35276617 54.1194192 -58.57185793 45.77649066 -58.32215881 37.12025452 C-49.74215881 37.12025452 -41.16215881 37.12025452 -32.32215881 37.12025452 C-31.38465881 47.05775452 -31.38465881 47.05775452 -31.09584045 50.19422913 C-31.01712708 51.00384094 -30.9384137 51.81345276 -30.85731506 52.64759827 C-30.77876282 53.48025208 -30.70021057 54.31290588 -30.61927795 55.17079163 C-30.51904484 57.12086652 -30.51904484 57.12086652 -29.32215881 58.12025452 C-27.74486164 58.42427554 -26.15962353 58.68729393 -24.57215881 58.93275452 C-18.99964632 59.88327423 -13.80195381 61.47771202 -8.46278381 63.31556702 C-2.2059792 64.91867865 2.92802441 64.0043738 9.05284119 62.24525452 C14.56695232 60.69460305 20.07208672 59.30041335 25.67784119 58.12025452 C27.02867635 46.78897705 28.05625243 35.51604844 28.67784119 24.12025452 C18.44784119 24.12025452 8.21784119 24.12025452 -2.32215881 24.12025452 C-2.50778381 20.34587952 -2.69340881 16.57150452 -2.88465881 12.68275452 C-2.94596985 11.4910968 -3.00728088 10.29943909 -3.07044983 9.07167053 C-3.11355286 8.14024231 -3.15665588 7.20881409 -3.20106506 6.24916077 C-3.24819641 5.29082336 -3.29532776 4.33248596 -3.34388733 3.34510803 C-3.31379696 0.26405682 -3.07108213 0.159038 0 0 Z " fill="#FEFDFC" transform="translate(146.32215881347656,151.87974548339844)"/>
<path d="M0 0 C8.58 0 17.16 0 26 0 C26.9375 9.9375 26.9375 9.9375 27.22631836 13.07397461 C27.30503174 13.88358643 27.38374512 14.69319824 27.46484375 15.52734375 C27.543396 16.35999756 27.62194824 17.19265137 27.70288086 18.05053711 C27.80311398 20.000612 27.80311398 20.000612 29 21 C30.57729717 21.30402102 32.16253528 21.56703941 33.75 21.8125 C38.20423997 22.57029927 42.33940761 23.69814983 46.625 25.125 C52.02738303 26.8677042 56.35321209 27.38283308 62 27 C62 27.66 62 28.32 62 29 C59.03 29.495 59.03 29.495 56 30 C56 37.92 56 45.84 56 54 C57.32 53.34 58.64 52.68 60 52 C62.75 51.875 62.75 51.875 65 52 C60.48550118 55.00966588 57.36658635 55.51720984 52 55 C47.97573145 54.12547067 44.06157263 52.95407028 40.125 51.75 C39.10019531 51.44964844 38.07539062 51.14929688 37.01953125 50.83984375 C32.12481017 49.37826884 27.36435249 47.79309892 22.64453125 45.8359375 C18.95133205 44.31251132 15.54883374 43.37262998 11.5625 42.875 C7.81618943 42.3963319 6.20462964 42.13641976 3 40 C2.3840332 37.82373047 2.3840332 37.82373047 2.05078125 35.1171875 C1.92485596 34.12138672 1.79893066 33.12558594 1.66918945 32.09960938 C1.55148193 31.03548828 1.43377441 29.97136719 1.3125 28.875 C1.18512451 27.79798828 1.05774902 26.72097656 0.92651367 25.61132812 C-0.03060736 16.99916468 -0.24969912 8.65623615 0 0 Z " fill="#EAEAE9" transform="translate(88,189)"/>
<path d="M0 0 C2.79192205 -0.05380578 5.5828141 -0.09357669 8.375 -0.125 C9.1690625 -0.14175781 9.963125 -0.15851562 10.78125 -0.17578125 C12.85492015 -0.19335473 14.92883241 -0.10335168 17 0 C19 2 19 2 19 5 C19.66 5 20.32 5 21 5 C21 6.32 21 7.64 21 9 C22.32 8.67 23.64 8.34 25 8 C25 7.01 25 6.02 25 5 C25.66 5 26.32 5 27 5 C27.144375 4.360625 27.28875 3.72125 27.4375 3.0625 C28 1 28 1 29 0 C31.86267567 -0.07325168 34.700719 -0.09238205 37.5625 -0.0625 C38.36880859 -0.05798828 39.17511719 -0.05347656 40.00585938 -0.04882812 C42.00393756 -0.03700518 44.00197783 -0.01906914 46 0 C46.02464638 5.82071622 46.0428343 11.64140234 46.05493164 17.4621582 C46.05997267 19.44393441 46.06680538 21.42570689 46.07543945 23.4074707 C46.08751515 26.24952109 46.09323045 29.09152247 46.09765625 31.93359375 C46.10281754 32.82525742 46.10797882 33.71692108 46.11329651 34.63560486 C46.11349177 36.75740601 46.0621003 38.8791078 46 41 C44.12756019 42.87243981 41.06340482 42.17380392 38.5625 42.1875 C37.38816406 42.20167969 36.21382812 42.21585938 35.00390625 42.23046875 C32 42 32 42 30 40 C29.5859375 37.6171875 29.5859375 37.6171875 29.375 34.875 C29.30023438 33.96492188 29.22546875 33.05484375 29.1484375 32.1171875 C29.09945312 31.41851563 29.05046875 30.71984375 29 30 C28.34 30 27.68 30 27 30 C26.855625 30.61875 26.71125 31.2375 26.5625 31.875 C26 34 26 34 25 36 C23.33388095 36.042721 21.66617115 36.04063832 20 36 C19 35 19 35 18.9375 32.4375 C18.958125 31.633125 18.97875 30.82875 19 30 C18.34 30 17.68 30 17 30 C16.95101562 30.69867187 16.90203125 31.39734375 16.8515625 32.1171875 C16.77679688 33.02726562 16.70203125 33.93734375 16.625 34.875 C16.55539063 35.77992187 16.48578125 36.68484375 16.4140625 37.6171875 C16 40 16 40 14 42 C10.99609375 42.23046875 10.99609375 42.23046875 7.4375 42.1875 C5.67212891 42.17783203 5.67212891 42.17783203 3.87109375 42.16796875 C1 42 1 42 0 41 C-0.08871273 37.97022196 -0.1151935 34.96332978 -0.09765625 31.93359375 C-0.0962413 31.02497086 -0.09482635 30.11634796 -0.09336853 29.18019104 C-0.08775193 26.26592779 -0.07519665 23.35174019 -0.0625 20.4375 C-0.05748714 18.46679798 -0.05292386 16.49609476 -0.04882812 14.52539062 C-0.03777711 9.68356441 -0.02050138 4.84179505 0 0 Z " fill="#000000" transform="translate(145,0)"/>
<path d="M0 0 C5.94 0 11.88 0 18 0 C18.33 3.3 18.66 6.6 19 10 C20.65 10 22.3 10 24 10 C24.33 6.7 24.66 3.4 25 0 C30.94 0 36.88 0 43 0 C43 13.53 43 27.06 43 41 C40.16239474 42.41880263 37.72317025 42.1320472 34.5625 42.125 C33.40878906 42.12757812 32.25507812 42.13015625 31.06640625 42.1328125 C28 42 28 42 25 41 C25 37.04 25 33.08 25 29 C22.69 28.67 20.38 28.34 18 28 C18 32.29 18 36.58 18 41 C15.16612485 42.41693757 12.71970627 42.1699013 9.5625 42.1875 C8.40878906 42.20167969 7.25507812 42.21585938 6.06640625 42.23046875 C3 42 3 42 0 40 C-0.266487 36.94924916 -0.34757146 34.10373821 -0.29296875 31.0546875 C-0.28872391 30.1696756 -0.28447906 29.2846637 -0.28010559 28.37283325 C-0.26328259 25.53991555 -0.22562425 22.70770348 -0.1875 19.875 C-0.17245782 17.95704151 -0.15876861 16.03907189 -0.14648438 14.12109375 C-0.11591604 9.41357048 -0.05720278 4.70757709 0 0 Z " fill="#000000" transform="translate(58,0)"/>
<path d="M0 0 C0.70026936 0.00085602 1.40053871 0.00171204 2.12202835 0.00259399 C10.62304412 0.01377657 19.12402583 0.03352881 27.625 0.0625 C27.625 8.0625 27.625 8.0625 25.625 24.0625 C5.495 24.0625 -14.635 24.0625 -35.375 24.0625 C-35.375 16.8025 -35.375 9.5425 -35.375 2.0625 C-43.01599191 2.14798292 -50.65679671 2.24172319 -58.29749775 2.35002708 C-61.84534604 2.3999857 -65.39316463 2.44631555 -68.94116211 2.484375 C-73.01956014 2.52828269 -77.09759545 2.5879323 -81.17578125 2.6484375 C-82.45085037 2.65998871 -83.72591949 2.67153992 -85.03962708 2.68344116 C-86.22062485 2.70331085 -87.40162262 2.72318054 -88.6184082 2.74365234 C-89.65987503 2.75697601 -90.70134186 2.77029968 -91.77436829 2.7840271 C-94.6098051 2.88467776 -94.6098051 2.88467776 -97.375 5.0625 C-97.375 3.7425 -97.375 2.4225 -97.375 1.0625 C-88.35435945 0.88504431 -79.33351962 0.71941445 -70.3125 0.5625 C-69.6300396 0.55062275 -68.94757919 0.5387455 -68.24443817 0.52650833 C-45.49545855 0.1340622 -22.75226421 -0.02801572 0 0 Z " fill="#FEFDFD" transform="translate(179.375,99.9375)"/>
<path d="M0 0 C29.04 0 58.08 0 88 0 C88 18.77362205 88 18.77362205 87.1875 25.875 C87.08211914 27.02935547 87.08211914 27.02935547 86.97460938 28.20703125 C86.73046875 30.4296875 86.73046875 30.4296875 86 34 C83.11461141 35.92359239 81.70239754 36.42060458 78.40234375 37.03515625 C77.51869141 37.20466797 76.63503906 37.37417969 75.72460938 37.54882812 C74.34499023 37.8030957 74.34499023 37.8030957 72.9375 38.0625 C71.11280565 38.40502811 69.28856119 38.74996432 67.46484375 39.09765625 C66.25235962 39.32207397 66.25235962 39.32207397 65.01538086 39.55102539 C62.94403914 39.92713649 62.94403914 39.92713649 61 41 C54.52941176 41.35294118 54.52941176 41.35294118 51 39 C53.97 39.495 53.97 39.495 57 40 C57 27.46 57 14.92 57 2 C38.19 2 19.38 2 0 2 C0 1.34 0 0.68 0 0 Z " fill="#F06F39" transform="translate(87,176)"/>
<path d="M0 0 C13.53 0 27.06 0 41 0 C41 4.62 41 9.24 41 14 C39.33657163 15.66342837 37.2174291 15.36048097 34.9375 15.5625 C34.01839844 15.64628906 33.09929687 15.73007813 32.15234375 15.81640625 C31.44207031 15.87699219 30.73179687 15.93757812 30 16 C30.01571045 16.71655762 30.0314209 17.43311523 30.04760742 18.17138672 C30.10981863 21.40584476 30.14894649 24.64017719 30.1875 27.875 C30.21263672 29.00292969 30.23777344 30.13085938 30.26367188 31.29296875 C30.27333984 32.36933594 30.28300781 33.44570313 30.29296875 34.5546875 C30.3086792 35.54968262 30.32438965 36.54467773 30.34057617 37.56982422 C30.22818604 38.37178223 30.1157959 39.17374023 30 40 C26.40389031 42.39740646 24.69907673 42.23987692 20.4375 42.1875 C19.28121094 42.18105469 18.12492187 42.17460938 16.93359375 42.16796875 C14 42 14 42 12 41 C12 32.42 12 23.84 12 15 C8.37 15 4.74 15 1 15 C0 12 0 12 0 0 Z " fill="#000000" transform="translate(102,0)"/>
<path d="M0 0 C5.61 0 11.22 0 17 0 C17.02687433 3.62504899 17.04677776 7.24990046 17.0625 10.875 C17.07087891 11.90753906 17.07925781 12.94007812 17.08789062 14.00390625 C17.09272461 15.48310547 17.09272461 15.48310547 17.09765625 16.9921875 C17.10551147 18.35899658 17.10551147 18.35899658 17.11352539 19.75341797 C17 22 17 22 16 24 C22.27 24 28.54 24 35 24 C35 29.61 35 35.22 35 41 C31.47860084 42.17379972 28.67584274 42.12953037 24.9609375 42.1328125 C24.27947662 42.13376923 23.59801575 42.13472595 22.89590454 42.13571167 C21.45859688 42.13639115 20.02128612 42.13455304 18.58398438 42.13037109 C16.37623272 42.125003 14.16868297 42.1303323 11.9609375 42.13671875 C10.56510372 42.13605825 9.16927006 42.13477767 7.7734375 42.1328125 C6.49903809 42.13168457 5.22463867 42.13055664 3.91162109 42.12939453 C1 42 1 42 0 41 C-0.08871273 37.97022196 -0.1151935 34.96332978 -0.09765625 31.93359375 C-0.0962413 31.02497086 -0.09482635 30.11634796 -0.09336853 29.18019104 C-0.08775193 26.26592779 -0.07519665 23.35174019 -0.0625 20.4375 C-0.05748714 18.46679798 -0.05292386 16.49609476 -0.04882812 14.52539062 C-0.03777711 9.68356441 -0.02050138 4.84179505 0 0 Z " fill="#000000" transform="translate(195,0)"/>
<path d="M0 0 C11.22 0 22.44 0 34 0 C34 7.26 34 14.52 34 22 C53.47 22 72.94 22 93 22 C93 22.33 93 22.66 93 23 C83.85426336 23.17207172 74.70842943 23.33851855 65.5625 23.5 C64.88999081 23.51187725 64.21748161 23.5237545 63.52459335 23.53599167 C42.68193131 23.90237521 21.84617251 24.1580545 1 24 C-0.04371573 15.91120312 0 8.25270485 0 0 Z " fill="#E44B21" transform="translate(110,126)"/>
<path d="M0 0 C30.69 0.33 61.38 0.66 93 1 C91.84966216 36.66047297 91.84966216 36.66047297 90.9375 49.9375 C90.84523141 51.33785962 90.75343767 52.73825061 90.66210938 54.13867188 C90.44597984 57.42611585 90.22542114 60.71318265 90 64 C89.34 64 88.68 64 88 64 C88.01160156 64.56847656 88.02320313 65.13695312 88.03515625 65.72265625 C88.09223194 70.60670484 87.81956772 75.18503965 87 80 C82.56923077 82.09230769 82.56923077 82.09230769 79.6875 81.625 C79.130625 81.41875 78.57375 81.2125 78 81 C81.465 80.01 81.465 80.01 85 79 C86.37344293 71.2020224 86.33736067 63.32653373 86.51757812 55.42773438 C86.55173828 54.30560547 86.58589844 53.18347656 86.62109375 52.02734375 C86.65867798 50.50741821 86.65867798 50.50741821 86.69702148 48.95678711 C87 46 87 46 87.98632812 43.10009766 C89.16028929 39.50978963 89.429867 36.11146898 89.59765625 32.37109375 C89.63684677 31.65897232 89.67603729 30.94685089 89.71641541 30.21315002 C89.83960319 27.95493418 89.95174098 25.69635665 90.0625 23.4375 C90.17847178 21.17520637 90.29687217 18.91309211 90.41929626 16.65113831 C90.52948425 14.60159535 90.63225327 12.55165751 90.73461914 10.50170898 C91 7 91 7 92 2 C61.97 2 31.94 2 1 2 C0.67 1.34 0.34 0.68 0 0 Z " fill="#F5CAB9" transform="translate(110,150)"/>
<path d="M0 0 C21.12 0 42.24 0 64 0 C64 0.99 64 1.98 64 3 C42.88 3 21.76 3 0 3 C0 2.01 0 1.02 0 0 Z " fill="#EF5919" transform="translate(144,95)"/>
<path d="M0 0 C9.9 0 19.8 0 30 0 C30 3.3 30 6.6 30 10 C29.67 10.33 29.34 10.66 29 11 C28.71778828 13.58022142 28.55179803 16.16030185 28.37890625 18.75 C28.19134766 19.86375 28.19134766 19.86375 28 21 C27.34 21.33 26.68 21.66 26 22 C25.97309896 19.20826945 25.95320947 16.41679652 25.9375 13.625 C25.92912109 12.8309375 25.92074219 12.036875 25.91210938 11.21875 C25.88671875 5.2265625 25.88671875 5.2265625 27 3 C18.09 3 9.18 3 0 3 C0 2.01 0 1.02 0 0 Z " fill="#EF5B1C" transform="translate(144,178)"/>
<path d="M0 0 C0.33 0 0.66 0 1 0 C0.37633718 13.33576886 -0.28392772 26.66886714 -1 40 C-1.66 40 -2.32 40 -3 40 C-2.98839844 40.56847656 -2.97679687 41.13695312 -2.96484375 41.72265625 C-2.90776806 46.60670484 -3.18043228 51.18503965 -4 56 C-8.43076923 58.09230769 -8.43076923 58.09230769 -11.3125 57.625 C-11.869375 57.41875 -12.42625 57.2125 -13 57 C-10.69 56.34 -8.38 55.68 -6 55 C-4.62655707 47.2020224 -4.66263933 39.32653373 -4.48242188 31.42773438 C-4.44826172 30.30560547 -4.41410156 29.18347656 -4.37890625 28.02734375 C-4.3538501 27.01406006 -4.32879395 26.00077637 -4.30297852 24.95678711 C-3.97247545 21.73138612 -3.07626946 19.04981812 -2 16 C-1.57000893 13.89349127 -1.57000893 13.89349127 -1.3671875 11.9140625 C-1.28339844 11.21152344 -1.19960937 10.50898438 -1.11328125 9.78515625 C-1.03464844 9.07230469 -0.95601562 8.35945312 -0.875 7.625 C-0.78863281 6.88894531 -0.70226562 6.15289062 -0.61328125 5.39453125 C-0.40318115 3.59700818 -0.20079233 1.79858658 0 0 Z " fill="#F7AD8D" transform="translate(201,174)"/>
<path d="M0 0 C8.58 0 17.16 0 26 0 C26 2.97 26 5.94 26 9 C25.67 9 25.34 9 25 9 C25 6.36 25 3.72 25 1 C17.08 1 9.16 1 1 1 C1.309375 2.815 1.61875 4.63 1.9375 6.5 C2.95621313 13.07859115 3.42315644 19.59358542 3.78125 26.23046875 C4.04861513 30.83774285 4.48197717 35.41494689 5 40 C5.763125 40.12375 6.52625 40.2475 7.3125 40.375 C10 41 10 41 13 43 C6.375 42.25 6.375 42.25 3 40 C2.3840332 37.82373047 2.3840332 37.82373047 2.05078125 35.1171875 C1.92485596 34.12138672 1.79893066 33.12558594 1.66918945 32.09960938 C1.55148193 31.03548828 1.43377441 29.97136719 1.3125 28.875 C1.18512451 27.79798828 1.05774902 26.72097656 0.92651367 25.61132812 C-0.03060736 16.99916468 -0.24969912 8.65623615 0 0 Z " fill="#E8AE9E" transform="translate(88,189)"/>
<path d="M0 0 C7.59 0 15.18 0 23 0 C23 1.98 23 3.96 23 6 C22.67 4.68 22.34 3.36 22 2 C16.06 2 10.12 2 4 2 C4 7.28 4 12.56 4 18 C3.34 18.33 2.68 18.66 2 19 C1.66225668 16.77149723 1.3299813 14.54216533 1 12.3125 C0.814375 11.07113281 0.62875 9.82976562 0.4375 8.55078125 C0 5 0 5 0 0 Z " fill="#EBF5F6" transform="translate(89,191)"/>
<path d="M0 0 C0.33 0 0.66 0 1 0 C1.02888146 3.31248187 1.04675799 6.62493167 1.0625 9.9375 C1.07087891 10.88302734 1.07925781 11.82855469 1.08789062 12.80273438 C1.09111328 13.70185547 1.09433594 14.60097656 1.09765625 15.52734375 C1.10289307 16.35999756 1.10812988 17.19265137 1.11352539 18.05053711 C1 20 1 20 0 21 C-0.23659614 24.42501072 -0.39673972 27.84280568 -0.51757812 31.2734375 C-0.60910491 33.18686533 -0.79739852 35.09512839 -1 37 C-1.99 37.495 -1.99 37.495 -3 38 C-3.02886984 34.02084841 -3.04675406 30.04172347 -3.0625 26.0625 C-3.07087891 24.92619141 -3.07925781 23.78988281 -3.08789062 22.61914062 C-3.09111328 21.53955078 -3.09433594 20.45996094 -3.09765625 19.34765625 C-3.10289307 18.34742432 -3.10812988 17.34719238 -3.11352539 16.31665039 C-3 14 -3 14 -2 13 C-1.79111292 11.00396794 -1.63224523 9.00257059 -1.5 7 C-1.11111111 1.11111111 -1.11111111 1.11111111 0 0 Z " fill="#F05A1A" transform="translate(205,154)"/>
<path d="M0 0 C16.335 0.495 16.335 0.495 33 1 C33 1.66 33 2.32 33 3 C22.77 3 12.54 3 2 3 C2 6.3 2 9.6 2 13 C1.34 12.67 0.68 12.34 0 12 C0 8.04 0 4.08 0 0 Z " fill="#E34017" transform="translate(110,126)"/>
<path d="M0 0 C0.33 0 0.66 0 1 0 C1 6.6 1 13.2 1 20 C2.32 19.34 3.64 18.68 5 18 C7.75 17.875 7.75 17.875 10 18 C6.58935191 20.27376539 5.00667309 21.13973042 1 21.125 C-0.051875 21.12886719 -0.051875 21.12886719 -1.125 21.1328125 C-3 21 -3 21 -5 20 C-5 19.34 -5 18.68 -5 18 C-5.78375 17.87625 -6.5675 17.7525 -7.375 17.625 C-10 17 -10 17 -12 15 C-7.11476189 14.80842203 -4.68510114 15.12595954 0 17 C0 11.39 0 5.78 0 0 Z " fill="#EFE0D9" transform="translate(143,223)"/>
<path d="M0 0 C20.13 0 40.26 0 61 0 C61 0.33 61 0.66 61 1 C60.28003342 1.00808685 59.56006683 1.01617371 58.81828308 1.02450562 C52.03492739 1.10243024 45.25174984 1.18971448 38.46865368 1.28752708 C34.98134023 1.33748374 31.49405697 1.3838136 28.0065918 1.421875 C23.99768923 1.46578584 19.98915548 1.5254346 15.98046875 1.5859375 C14.72727341 1.59748871 13.47407806 1.60903992 12.1829071 1.62094116 C11.02193008 1.64081085 9.86095306 1.66068054 8.66479492 1.68115234 C7.64109299 1.69447601 6.61739105 1.70779968 5.56266785 1.7215271 C2.76006168 1.82660412 2.76006168 1.82660412 0 4 C0 2.68 0 1.36 0 0 Z " fill="#EBFCFE" transform="translate(82,101)"/>
<path d="M0 0 C4.72794312 0.43980866 8.86199789 1.56522029 13.375 3.0625 C18.87303238 4.82314158 23.26027252 5.38913407 29 5 C29 5.66 29 6.32 29 7 C24.05 7.33 19.1 7.66 14 8 C13.67 7.34 13.34 6.68 13 6 C10.12972724 4.6492834 7.32099514 3.81893204 4.25 3 C3.1775 2.67 2.105 2.34 1 2 C0.67 1.34 0.34 0.68 0 0 Z " fill="#EEE0DB" transform="translate(121,211)"/>
<path d="M0 0 C0.33 0 0.66 0 1 0 C1.33 11.22 1.66 22.44 2 34 C3.32 34.33 4.64 34.66 6 35 C2.98131566 36.50934217 0.32702771 36.17510672 -3 36 C-3.99 35.34 -4.98 34.68 -6 34 C-4.02 34.33 -2.04 34.66 0 35 C0 23.45 0 11.9 0 0 Z " fill="#ED6938" transform="translate(144,181)"/>
<path d="M0 0 C-3.24004262 3.88805114 -6.08237111 4.98255954 -11 6 C-14.4375 6.125 -14.4375 6.125 -17 6 C-15.58158814 3.16317628 -13.95354651 3.05014987 -11 2 C-10.01 1.62875 -9.02 1.2575 -8 0.875 C-5.14400927 0.0420027 -2.95001617 -0.17353036 0 0 Z " fill="#F05B1C" transform="translate(197,231)"/>
<path d="M0 0 C7.38778946 -0.47156103 13.47571106 1.61267166 20 5 C6.3667426 4.40546697 6.3667426 4.40546697 0 1 C0 0.67 0 0.34 0 0 Z " fill="#EBF6F7" transform="translate(115,212)"/>
<path d="M0 0 C6.90767437 0.36823999 12.6381142 1.23918163 19 4 C16.00519083 4.8723412 13.36424089 5.10829766 10.25 5.0625 C9.45078125 5.05347656 8.6515625 5.04445312 7.828125 5.03515625 C7.22484375 5.02355469 6.6215625 5.01195312 6 5 C5.67 4.34 5.34 3.68 5 3 C3.35636866 2.27840576 1.68949614 1.60648579 0 1 C0 0.67 0 0.34 0 0 Z " fill="#E57557" transform="translate(95,231)"/>
<path d="M0 0 C0.33 0 0.66 0 1 0 C1.06058594 0.71027344 1.12117188 1.42054688 1.18359375 2.15234375 C1.26738281 3.07144531 1.35117188 3.99054688 1.4375 4.9375 C1.51871094 5.85402344 1.59992188 6.77054688 1.68359375 7.71484375 C1.76044976 9.96159732 1.76044976 9.96159732 3 11 C5.32817964 11.36760731 7.6618385 11.70241581 10 12 C9.67 12.99 9.34 13.98 9 15 C4.545 14.01 4.545 14.01 0 13 C0 8.71 0 4.42 0 0 Z " fill="#EBF8F8" transform="translate(93,216)"/>
<path d="M0 0 C-1 2 -1 2 -3.75 3.125 C-6.70186896 3.91973395 -8.97219837 4.17810598 -12 4 C-12 3.01 -12 2.02 -12 1 C-7.9472484 0.01751476 -4.16138263 -0.08159574 0 0 Z " fill="#F05B1A" transform="translate(158,211)"/>
<path d="M0 0 C0 0.99 0 1.98 0 3 C-2.88211302 3.96070434 -4.69850044 4.10581883 -7.6875 4.0625 C-8.89986328 4.04896484 -8.89986328 4.04896484 -10.13671875 4.03515625 C-11.05904297 4.01775391 -11.05904297 4.01775391 -12 4 C-11 2 -11 2 -8.25 0.875 C-5.29813104 0.08026605 -3.02780163 -0.17810598 0 0 Z " fill="#F05D21" transform="translate(171,207)"/>
<path d="M0 0 C1.64666203 0.1135629 3.29236082 0.24117381 4.9375 0.375 C5.85402344 0.44460937 6.77054687 0.51421875 7.71484375 0.5859375 C8.84599609 0.79089844 8.84599609 0.79089844 10 1 C10.33 1.66 10.66 2.32 11 3 C7.37 2.67 3.74 2.34 0 2 C0 1.34 0 0.68 0 0 Z " fill="#E33F14" transform="translate(117,239)"/>
<path d="M0 0 C2.0625 0.4375 2.0625 0.4375 4 1 C1.31907309 3.68092691 -0.39167363 3.38670257 -4.125 3.625 C-5.22070312 3.69976562 -6.31640625 3.77453125 -7.4453125 3.8515625 C-8.28835937 3.90054688 -9.13140625 3.94953125 -10 4 C-7.24072656 1.24072656 -4.78845948 1.48216757 -1 1 C-0.67 0.67 -0.34 0.34 0 0 Z " fill="#F69B74" transform="translate(183,232)"/>
<path d="M0 0 C4.3177458 0.50797009 8.03302114 1.19682779 12 3 C7.99608513 4.60156595 4.92968808 3.4087561 1 2 C0.67 1.34 0.34 0.68 0 0 Z " fill="#E8BBAE" transform="translate(121,211)"/>
<path d="M0 0 C-0.639375 0.309375 -1.27875 0.61875 -1.9375 0.9375 C-3.93610821 1.8345163 -3.93610821 1.8345163 -5 3 C-6.99958364 3.04080783 -9.00045254 3.04254356 -11 3 C-11 2.34 -11 1.68 -11 1 C-7.26562152 0.12132271 -3.83225427 -0.08912219 0 0 Z " fill="#EF5716" transform="translate(171,239)"/>
<path d="M0 0 C1.093125 0.226875 2.18625 0.45375 3.3125 0.6875 C1.9925 1.0175 0.6725 1.3475 -0.6875 1.6875 C-0.6875 2.3475 -0.6875 3.0075 -0.6875 3.6875 C-3.6575 3.1925 -3.6575 3.1925 -6.6875 2.6875 C-4.58035839 -0.41123767 -3.86755884 -0.32775922 0 0 Z " fill="#E45833" transform="translate(130.6875,240.3125)"/>
</svg>
